<svg xmlns="http://www.w3.org/2000/svg" width="128" height="128" viewBox="0 0 128 128"><defs><linearGradient id="outer" x2="1" y2="1"><stop stop-color="#8b8e88"/><stop offset=".36" stop-color="#363b3c"/><stop offset="1" stop-color="#171b1d"/></linearGradient><linearGradient id="inner" x2="0" y2="1"><stop stop-color="#0d1115"/><stop offset="1" stop-color="#242a2d"/></linearGradient></defs><path d="M22 9 H106 V119 H22 Z" fill="url(#outer)" stroke="#707671" stroke-width="1"/><path d="M32 20 H96 V110 H32 Z" fill="url(#inner)" stroke="#07090b" stroke-width="2"/><path d="M22 9 L32 20 M106 9 L96 20 M22 119 L32 110 M106 119 L96 110" stroke="#a2a59c" stroke-opacity=".42"/><path d="M32 20 L38 25 V105 L32 110" fill="#343b3d"/><path d="M37 25 V104" stroke="#dcb387" stroke-opacity=".4"/><g transform="translate(40,46) scale(1.0)" fill="none" stroke="#dcb387" stroke-width="2" stroke-linecap="round" stroke-linejoin="round"><path d="M29 3 Q19 1 18 12 L5 25 Q1 29 5 32 Q8 35 12 31 L25 18 Q36 18 36 7 L29 12 L24 8 Z"/></g></svg>