<svg xmlns="http://www.w3.org/2000/svg" width="568" height="1232" viewBox="0 0 568 1232"><rect x="0" y="0" width="568" height="82" fill="#080a0d" opacity="0.26" rx="0"/><text x="28" y="46" font-family="Nimbus Sans" font-size="17" fill="#eeeae2" text-anchor="start" letter-spacing="3">DOORS</text><g fill="none" stroke="#eeeae2" stroke-width="1.7" stroke-linecap="round"><path d="M436 34 Q445 26 454 34 M440 39 Q445 34 450 39"/><circle cx="445" cy="43" r="1" fill="#eeeae2"/><rect x="466" y="32" width="24" height="13" rx="2"/><path d="M492 36 v5"/></g><rect x="469" y="35" width="16" height="7" fill="#eeeae2" opacity="1" rx="0"/><text x="540" y="45" font-family="Nimbus Sans" font-size="16" fill="#eeeae2" text-anchor="end" letter-spacing="0">86%</text><text x="284.0" y="294" font-family="Nimbus Sans" font-size="98" fill="#eeeae2" text-anchor="middle" letter-spacing="0">17:24</text><text x="284.0" y="336" font-family="Nimbus Sans" font-size="21" fill="#c3c0b9" text-anchor="middle" letter-spacing="0">Monday, 21 September</text><g transform="translate(274.0,1055)" fill="none" stroke="#eeeae2" stroke-width="1.5"><rect y="10" width="20" height="18" rx="2"/><path d="M4 10 V5 A6 6 0 0 1 16 5 V10 M10 17 v5"/></g><text x="284.0" y="1113" font-family="Nimbus Sans" font-size="18" fill="#c3c0b9" text-anchor="middle" letter-spacing="0">Tap to open</text></svg>