<svg xmlns="http://www.w3.org/2000/svg" width="568" height="1232" viewBox="0 0 568 1232"><rect x="0" y="0" width="568" height="1232" rx="4" fill="#0a1014" fill-opacity="0.24"/><text x="28" y="43" font-family="Nimbus Sans" font-size="17" fill="#eeeae2" text-anchor="start" letter-spacing="3">DOORS</text><g transform="translate(429,25) scale(0.5)" fill="none" stroke="#eeeae2" stroke-width="2" stroke-linecap="round" stroke-linejoin="round"><path d="M3 9 Q24 -8 45 9 M10 17 Q24 4 38 17 M17 25 Q24 18 31 25"/><circle cx="24" cy="32" r="1.5"/></g><rect x="465" y="29" width="24" height="12" rx="2" fill="none" stroke="#eeeae2"/><rect x="468" y="32" width="17" height="6" fill="#eeeae2"/><text x="540" y="41" font-family="Nimbus Sans" font-size="16" fill="#eeeae2" text-anchor="end" letter-spacing="0">86%</text><text x="36" y="151" font-family="Nimbus Sans" font-size="46" fill="#eeeae2" text-anchor="start" letter-spacing="0">System</text><text x="36" y="186" font-family="Nimbus Sans" font-size="21" fill="#c3c0b9" text-anchor="start" letter-spacing="0">Quick controls</text><rect x="36" y="250" width="240" height="120" rx="4" fill="#161c20" fill-opacity="0.56" stroke="#a0a8a4" stroke-opacity=".42"/><g transform="translate(56,286) scale(0.875)" fill="none" stroke="#eeeae2" stroke-width="2" stroke-linecap="round" stroke-linejoin="round"><path d="M3 9 Q24 -8 45 9 M10 17 Q24 4 38 17 M17 25 Q24 18 31 25"/><circle cx="24" cy="32" r="1.5"/></g><text x="114" y="299" font-family="Nimbus Sans" font-size="21" fill="#eeeae2" text-anchor="start" letter-spacing="0">Wi-Fi</text><text x="114" y="328" font-family="Nimbus Sans" font-size="17" fill="#c3c0b9" text-anchor="start" letter-spacing="0">Connected</text><circle cx="258" cy="270" r="4" fill="#b5cfa5"/><rect x="292" y="250" width="240" height="120" rx="4" fill="#161c20" fill-opacity="0.56" stroke="#a0a8a4" stroke-opacity=".42"/><g transform="translate(312,286) scale(0.875)" fill="none" stroke="#eeeae2" stroke-width="2" stroke-linecap="round" stroke-linejoin="round"><path d="M22 1 V35 L36 25 L10 7 M10 29 L36 11 L22 1"/></g><text x="370" y="299" font-family="Nimbus Sans" font-size="21" fill="#eeeae2" text-anchor="start" letter-spacing="0">Bluetooth</text><text x="370" y="328" font-family="Nimbus Sans" font-size="17" fill="#c3c0b9" text-anchor="start" letter-spacing="0">Off</text><circle cx="514" cy="270" r="4" fill="#7f8586"/><rect x="36" y="386" width="240" height="120" rx="4" fill="#161c20" fill-opacity="0.56" stroke="#a0a8a4" stroke-opacity=".42"/><g transform="translate(56,422) scale(0.875)" fill="none" stroke="#eeeae2" stroke-width="2" stroke-linecap="round" stroke-linejoin="round"><path d="M18 27 L24 9 L30 27 M21 20 H27 M15 7 Q9 14 15 21 M33 7 Q39 14 33 21 M10 3 Q0 14 10 25 M38 3 Q48 14 38 25"/><circle cx="24" cy="7" r="2"/></g><text x="114" y="435" font-family="Nimbus Sans" font-size="21" fill="#eeeae2" text-anchor="start" letter-spacing="0">Radio</text><text x="114" y="464" font-family="Nimbus Sans" font-size="17" fill="#c3c0b9" text-anchor="start" letter-spacing="0">Ready</text><circle cx="258" cy="406" r="4" fill="#b5cfa5"/><rect x="292" y="386" width="240" height="120" rx="4" fill="#161c20" fill-opacity="0.56" stroke="#a0a8a4" stroke-opacity=".42"/><g transform="translate(312,422) scale(0.875)" fill="none" stroke="#eeeae2" stroke-width="2" stroke-linecap="round" stroke-linejoin="round"><path d="M4 13 H13 L23 4 V32 L13 23 H4 Z M29 11 Q36 18 29 25 M35 5 Q47 18 35 31"/></g><text x="370" y="435" font-family="Nimbus Sans" font-size="21" fill="#eeeae2" text-anchor="start" letter-spacing="0">Sound</text><text x="370" y="464" font-family="Nimbus Sans" font-size="17" fill="#c3c0b9" text-anchor="start" letter-spacing="0">On</text><circle cx="514" cy="406" r="4" fill="#b5cfa5"/><rect x="36" y="538" width="496" height="219" rx="4" fill="#161c20" fill-opacity="0.56" stroke="#a0a8a4" stroke-opacity=".42"/><g transform="translate(54,565) scale(0.5833333333333334)" fill="none" stroke="#eeeae2" stroke-width="2" stroke-linecap="round" stroke-linejoin="round"><circle cx="24" cy="18" r="8"/><path d="M24 0 V5 M24 31 V36 M6 18 H11 M37 18 H42 M11 5 L15 9 M33 27 L37 31 M11 31 L15 27 M33 9 L37 5"/></g><text x="98" y="583" font-family="Nimbus Sans" font-size="19" fill="#eeeae2" text-anchor="start" letter-spacing="0">Brightness</text><text x="510" y="583" font-family="Nimbus Sans" font-size="18" fill="#eeeae2" text-anchor="end" letter-spacing="0">60%</text><path d="M98 611 L504 611" fill="none" stroke="#9a9e98" stroke-opacity="0.65"/><path d="M98 611 H341.6" stroke="#e5e2d4" stroke-width="4"/><circle cx="341.6" cy="611" r="7" fill="#e5e2d4"/><g transform="translate(54,669) scale(0.5833333333333334)" fill="none" stroke="#eeeae2" stroke-width="2" stroke-linecap="round" stroke-linejoin="round"><path d="M4 13 H13 L23 4 V32 L13 23 H4 Z M29 11 Q36 18 29 25 M35 5 Q47 18 35 31"/></g><text x="98" y="687" font-family="Nimbus Sans" font-size="19" fill="#eeeae2" text-anchor="start" letter-spacing="0">Volume</text><text x="510" y="687" font-family="Nimbus Sans" font-size="18" fill="#eeeae2" text-anchor="end" letter-spacing="0">40%</text><path d="M98 715 L504 715" fill="none" stroke="#9a9e98" stroke-opacity="0.65"/><path d="M98 715 H260.4" stroke="#e5e2d4" stroke-width="4"/><circle cx="260.4" cy="715" r="7" fill="#e5e2d4"/><rect x="36" y="782" width="496" height="216" rx="4" fill="#161c20" fill-opacity="0.56" stroke="#a0a8a4" stroke-opacity=".42"/><g transform="translate(55,805.0) scale(0.6666666666666666)" fill="none" stroke="#eeeae2" stroke-width="2" stroke-linecap="round" stroke-linejoin="round"><rect x="3" y="2" width="42" height="26" rx="2"/><path d="M24 28 V35 M15 35 H33"/></g><text x="104" y="825.0" font-family="Nimbus Sans" font-size="21" fill="#eeeae2" text-anchor="start" letter-spacing="0">Display &amp; sleep</text><path d="M503 812.0 l6 6 l-6 6" fill="none" stroke="#eeeae2" stroke-width="1.5"/><path d="M36 854 L532 854" fill="none" stroke="#929892" stroke-opacity="0.4"/><g transform="translate(55,877.0) scale(0.6666666666666666)" fill="none" stroke="#eeeae2" stroke-width="2" stroke-linecap="round" stroke-linejoin="round"><circle cx="24" cy="17" r="16"/><ellipse cx="24" cy="17" rx="7" ry="16"/><path d="M8 17 H40 M11 9 H37 M11 25 H37"/></g><text x="104" y="897.0" font-family="Nimbus Sans" font-size="21" fill="#eeeae2" text-anchor="start" letter-spacing="0">Connections</text><path d="M503 884.0 l6 6 l-6 6" fill="none" stroke="#eeeae2" stroke-width="1.5"/><path d="M36 926 L532 926" fill="none" stroke="#929892" stroke-opacity="0.4"/><g transform="translate(55,949.0) scale(0.6666666666666666)" fill="none" stroke="#eeeae2" stroke-width="2" stroke-linecap="round" stroke-linejoin="round"><circle cx="24" cy="18" r="16"/><path d="M24 16 V28"/><circle cx="24" cy="9" r="1"/></g><text x="104" y="969.0" font-family="Nimbus Sans" font-size="21" fill="#eeeae2" text-anchor="start" letter-spacing="0">About DOORS</text><path d="M503 956.0 l6 6 l-6 6" fill="none" stroke="#eeeae2" stroke-width="1.5"/><path d="M36 998 L532 998" fill="none" stroke="#929892" stroke-opacity="0.4"/><rect x="36" y="1030" width="240" height="77" rx="4" fill="#161c20" fill-opacity="0.56" stroke="#a0a8a4" stroke-opacity=".42"/><g transform="translate(58,1055.0) scale(0.6666666666666666)" fill="none" stroke="#eeeae2" stroke-width="2" stroke-linecap="round" stroke-linejoin="round"><rect x="10" y="15" width="28" height="21" rx="2"/><path d="M16 15 V8 A8 8 0 0 1 32 8 V15 M24 23 V29"/></g><text x="111" y="1075.5" font-family="Nimbus Sans" font-size="22" fill="#eeeae2" text-anchor="start" letter-spacing="0">Lock</text><rect x="292" y="1030" width="240" height="77" rx="4" fill="#161c20" fill-opacity="0.56" stroke="#a0a8a4" stroke-opacity=".42"/><g transform="translate(314,1055.0) scale(0.6666666666666666)" fill="none" stroke="#eeeae2" stroke-width="2" stroke-linecap="round" stroke-linejoin="round"><path d="M24 1 V18 M13 6 A16 16 0 1 0 35 6"/></g><text x="367" y="1075.5" font-family="Nimbus Sans" font-size="22" fill="#eeeae2" text-anchor="start" letter-spacing="0">Power</text></svg>